PathFileType	4	(X/Y/Z)	/Users/visionmauri/4_2_1_f_1_Sports2D/4_2_1_f_1_Sports2D_px_person00.trc
DataRate	CameraRate	NumFrames	NumMarkers	Units	OrigDataRate	OrigDataStartFrame	OrigNumFrames
30.0	30.0	5	22	m	30.0	286	382
Frame#	Time	Hip			RHip			RKnee			RAnkle			RBigToe			RSmallToe			RHeel			LHip			LKnee			LAnkle			LBigToe			LSmallToe			LHeel			Neck			Head			Nose			RShoulder			RElbow			RWrist			LShoulder			LElbow			LWrist			
		X1	Y1	Z1	X2	Y2	Z2	X3	Y3	Z3	X4	Y4	Z4	X5	Y5	Z5	X6	Y6	Z6	X7	Y7	Z7	X8	Y8	Z8	X9	Y9	Z9	X10	Y10	Z10	X11	Y11	Z11	X12	Y12	Z12	X13	Y13	Z13	X14	Y14	Z14	X15	Y15	Z15	X16	Y16	Z16	X17	Y17	Z17	X18	Y18	Z18	X19	Y19	Z19	X20	Y20	Z20	X21	Y21	Z21	X22	Y22	Z22
286	9.558355205599298	619.6189644305742	883.9229126231013	0.0	556.8517991563019	891.85278416337	0.0	530.5200939199992	1099.24033495919	0.0	499.369071246281	1359.6889381899532	0.0	489.7791863676569	1449.060705059206	0.0	465.6309677158448	1441.380766223626	0.0	523.5402301507256	1398.4188357250619	0.0	685.2603790791416	894.5583884169972	0.0	686.8316968882585	1119.2494209360318	0.0	676.4165060038251	1323.2033022577698	0.0	703.024407467047	1408.721245618791	0.0	731.8816321253219	1395.4436006940398	0.0	656.761745486746	1355.48473969852	0.0	623.2879893399918	528.8827612299845	0.0	616.7482588685627	376.6648951745809	0.0	606.7169196030582	491.80630853021114	0.0	518.1716538484912	574.4025037624576	0.0	437.07061064507184	730.9549392438993	0.0	357.09535781759604	848.5894678853616	0.0	738.33404278483	553.7381450256611	0.0	788.1633767518368	725.0397763714215	0.0	804.2839975036529	860.2818857911765	0.0
287	9.591776027996499	616.5402079150308	884.8138551235204	0.0	553.8125764827442	893.537904099729	0.0	530.1251942952681	1100.399176414685	0.0	501.1480190102405	1356.0875717113522	0.0	494.4263277565526	1449.171568079243	0.0	477.7116270938836	1439.1975765432535	0.0	525.8510211903222	1393.6009889013674	0.0	682.0426325162967	894.862945713817	0.0	688.2034069682936	1119.7436797198761	0.0	677.0132966147138	1322.0975343042514	0.0	703.4621393713379	1409.4388563160603	0.0	732.0674644604796	1394.914470792021	0.0	656.8534320651951	1352.3208543061996	0.0	616.6807745985178	528.2482596295574	0.0	605.1440032024523	370.99770862639826	0.0	597.753854860853	492.0766963252481	0.0	509.8223860314116	574.7313554942731	0.0	431.57615226844115	731.7345297571377	0.0	352.85786571741	850.5725355111555	0.0	732.5723013929783	553.4945568807358	0.0	785.4062877280719	726.6703426473631	0.0	804.6704125395809	859.6912513516633	0.0
288	9.6251968503937	613.747341111735	885.6899787225418	0.0	550.8205647917061	894.5884851093988	0.0	528.5406493899542	1104.5351032965302	0.0	500.6615544944204	1356.295475969044	0.0	496.8225745917861	1453.9856982142212	0.0	479.1647343586642	1440.61394128606	0.0	525.007200840899	1393.9732715058049	0.0	679.7458049911744	894.8810987468294	0.0	690.9094736687722	1120.463594996947	0.0	678.0309821459607	1320.5571836922882	0.0	704.1600964252708	1410.5497287605328	0.0	732.6874038171895	1394.3044352826323	0.0	656.7434818549243	1348.7243656366043	0.0	609.3619821311377	527.1568522372302	0.0	592.8958092490058	367.42949344180636	0.0	588.0261425207113	490.28342568523163	0.0	501.5243855202627	574.7192094394458	0.0	425.8923554070386	732.4637968223478	0.0	347.99853925930597	852.4556238389558	0.0	725.781250745246	552.1494148399137	0.0	781.6488493593887	726.7669258837963	0.0	805.0937750550364	859.5927811318531	0.0
289	9.6586176727909	612.0467292911875	885.4357321277138	0.0	548.9024862241055	895.0192596673234	0.0	526.4282465348725	1108.9092845038606	0.0	499.74811696328106	1357.4506354531443	0.0	495.8591057553958	1461.9760371447194	0.0	474.33603174269257	1443.6654075098106	0.0	523.1281489819345	1394.5512885918715	0.0	678.8067587986751	894.5899107016953	0.0	694.3840778505697	1122.8813933187548	0.0	678.8755929500395	1316.962774250969	0.0	704.2228612459927	1411.5087493931906	0.0	733.3353269797984	1393.8477182605504	0.0	656.10287649979	1343.3565896455154	0.0	600.6418804524961	525.9762662189535	0.0	581.9094297604438	367.513954917538	0.0	578.0453503357762	485.82620626655415	0.0	492.7838037501791	576.09472744072	0.0	419.25031264483033	733.3361470363789	0.0	342.06676291325067	854.295586152916	0.0	717.5226047252114	547.9727713212159	0.0	777.0707126811704	723.2295991206153	0.0	804.4539601919204	859.79386754158	0.0
290	9.6920384951881	610.7660240868651	884.4530782770379	0.0	547.1855791344376	894.6118413108851	0.0	524.2111136137322	1110.5037068186145	0.0	499.63231602562024	1360.1783455361347	0.0	491.7227673125124	1468.5489349384677	0.0	470.32954488100324	1447.8090867139883	0.0	521.8249245452648	1396.121483570155	0.0	678.5511963662735	893.8386022056641	0.0	699.1573180998249	1125.550657341814	0.0	678.9854989570332	1311.5556568012128	0.0	703.727387347391	1412.4150888280944	0.0	733.6278837074407	1393.8614270893547	0.0	654.9992550648896	1336.1265118225438	0.0	592.0405865727924	525.7004699989744	0.0	572.8708206565857	368.8182738690108	0.0	570.4622681168145	482.87821641071815	0.0	484.068991150575	578.8731878025437	0.0	411.8250479066795	734.645402735857	0.0	336.6490180474033	855.3782115398366	0.0	710.169655691375	543.5445358592223	0.0	772.8887655819586	718.8075181920688	0.0	802.3883433392984	860.2252779212322	0.0
